<?xml version="1.0" encoding="iso-8859-1"?>
<!-- Uploaded to: SVG Repo, www.svgrepo.com, Generator: SVG Repo Mixer Tools -->
<svg height="1000px" width="1000px" version="1.1" id="Layer_1" xmlns="http://www.w3.org/2000/svg" xmlns:xlink="http://www.w3.org/1999/xlink"
	 viewBox="0 0 512 512" xml:space="preserve">
<path style="fill:#7B7979;" d="M392.841,204.127c-2.478,0-4.922-1.145-6.491-3.303L256,21.594l-130.348,179.23
	c-2.604,3.582-7.619,4.374-11.2,1.768c-3.581-2.605-4.373-7.619-1.768-11.2L249.517,3.247c3.148-4.329,9.819-4.329,12.968,0
	l136.833,188.145c2.605,3.581,1.813,8.595-1.768,11.2C396.126,203.628,394.475,204.126,392.841,204.127z"/>
<path style="fill:#E9E9E9;" d="M25.629,267.732v220.216C25.629,501.21,36.419,512,49.682,512h412.637
	c13.263,0,24.053-10.791,24.053-24.053V267.732H25.629z"/>
<path style="fill:#6DDAE1;" d="M462.319,188.091H49.682c-13.283,0-24.053,10.769-24.053,24.053v77.503h460.742v-77.503
	C486.371,198.859,475.603,188.091,462.319,188.091z"/>
<path style="fill:#D3D2D2;" d="M59.303,487.948V267.732H25.629v220.216C25.629,501.21,36.419,512,49.682,512h33.674
	C70.093,512,59.303,501.21,59.303,487.948z"/>
<path style="fill:#4FC4D4;" d="M83.356,188.091H49.682c-13.283,0-24.053,10.768-24.053,24.053v77.503h33.674v-77.503
	C59.303,198.859,70.072,188.091,83.356,188.091z"/>
<g>
	<path style="fill:#FFD791;" d="M119.167,213.747c-13.852,0-25.122,11.269-25.122,25.122s11.269,25.122,25.122,25.122
		s25.122-11.269,25.122-25.122S133.02,213.747,119.167,213.747z"/>
	<path style="fill:#FFD791;" d="M392.833,213.747c-13.852,0-25.122,11.269-25.122,25.122s11.269,25.122,25.122,25.122
		s25.122-11.269,25.122-25.122S406.685,213.747,392.833,213.747z"/>
</g>
<path style="fill:#4FC4D4;" d="M341.521,246.887H170.48c-4.428,0-8.018-3.589-8.018-8.018c0-4.429,3.59-8.018,8.018-8.018h171.041
	c4.428,0,8.018,3.589,8.018,8.018C349.538,243.298,345.949,246.887,341.521,246.887z"/>
<g>
	<path style="fill:#96CA62;" d="M165.135,366.616h18.173c4.428,0,8.018-3.589,8.018-8.018s-3.59-8.018-8.018-8.018h-18.173
		c-13.263,0-24.053,10.791-24.053,24.053v2.138c0,13.262,10.789,24.053,24.053,24.053h2.138c4.421,0,8.018,3.596,8.018,8.018v2.138
		c0,4.421-3.596,8.018-8.018,8.018H149.1c-4.428,0-8.018,3.589-8.018,8.018c0,4.429,3.59,8.018,8.018,8.018h18.173
		c13.263,0,24.053-10.791,24.053-24.053v-2.138c0-13.262-10.79-24.053-24.053-24.053h-2.138c-4.421,0-8.018-3.596-8.018-8.018
		v-2.138C157.117,370.212,160.714,366.616,165.135,366.616z"/>
	<path style="fill:#96CA62;" d="M227.137,350.58h-2.138c-13.263,0-24.053,10.791-24.053,24.053v52.381
		c0,4.429,3.59,8.018,8.018,8.018s8.018-3.589,8.018-8.018v-26.191h18.173v26.191c0,4.429,3.59,8.018,8.018,8.018
		s8.018-3.589,8.018-8.018v-52.381C251.19,361.371,240.4,350.58,227.137,350.58z M216.981,384.789v-10.156
		c0-4.421,3.596-8.018,8.018-8.018h2.138c4.421,0,8.018,3.596,8.018,8.018v10.156H216.981z"/>
	<path style="fill:#96CA62;" d="M303.037,418.997h-26.191v-60.399c0-4.429-3.59-8.018-8.018-8.018s-8.018,3.589-8.018,8.018v68.416
		c0,4.429,3.59,8.018,8.018,8.018h34.208c4.428,0,8.018-3.589,8.018-8.018C311.054,422.586,307.464,418.997,303.037,418.997z"/>
	<path style="fill:#96CA62;" d="M362.901,418.997H336.71v-18.173h9.087c4.428,0,8.018-3.589,8.018-8.018
		c0-4.429-3.59-8.018-8.018-8.018h-9.087v-18.173h26.191c4.428,0,8.018-3.589,8.018-8.018s-3.59-8.018-8.018-8.018h-34.208
		c-4.428,0-8.018,3.589-8.018,8.018v68.416c0,4.429,3.59,8.018,8.018,8.018h34.208c4.428,0,8.018-3.589,8.018-8.018
		C370.919,422.586,367.329,418.997,362.901,418.997z"/>
</g>
</svg>
